# xmcd CD database file
#
# Track frame offsets:
#	150
#	19485
#	48012
#	55862
#	111467
#	126452
#	174900
#	183907
#	207662
#	229570
#	245312
#	283005
#	306030
#
# Disc length: 4399 seconds
#
# Revision: 0
# Processed by: cddbd v1.5.1PL0 Copyright (c) Steve Scherf et al.
# Submitted via: CDex 1.51
#
DISCID=b6112d0d
DTITLE=東京魔人學園剣風帖 - 妖都鎮魂歌　壱
DYEAR=2001
DGENRE=Other
TTITLE0=壱
TTITLE1=弐
TTITLE2=参
TTITLE3=四
TTITLE4=五
TTITLE5=六
TTITLE6=七
TTITLE7=八
TTITLE8=九
TTITLE9=拾
TTITLE10=拾壱
TTITLE11=拾弐
TTITLE12=拾参
EXTD=YEAR: 2001
EXTT0=
EXTT1=
EXTT2=
EXTT3=
EXTT4=
EXTT5=
EXTT6=
EXTT7=
EXTT8=
EXTT9=
EXTT10=
EXTT11=
EXTT12=
PLAYORDER=
